<svg version="1.1" xmlns="http://www.w3.org/2000/svg" width="500px" height="167.095px">
<path d="M209.084,6.773c-5.757-6.771-14.004-6.771-20.632-6.771h-15.252v51.295h14.841c7.346,0,13.689,0,18.813-4.246
	c1.992-1.599,8.549-7.862,8.549-20.991C215.404,18.274,213.218,11.605,209.084,6.773 M206.169,26.336
	c0,6.846-2.058,11.855-6.113,14.896c-3.127,2.347-8.019,2.545-12.361,2.545h-5.729V7.599h7.245c5.579,0,9.398,0.651,12.42,3.991
	C205.727,16.109,206.169,23.408,206.169,26.336 M259.153,0h8.56v31.398c0,2.529,0,8.451-4.251,13.726
	c-4.997,6.271-12.601,7.203-16.688,7.203c-3.746,0-13.013-0.805-18.225-8.279c-1.472-2.149-3.048-5.106-3.048-12.991V0h8.755v31.536
	c0,4.855,1.019,6.942,2.001,8.323c2.225,2.962,5.768,4.465,10.517,4.465c12.379,0,12.379-9.49,12.379-13.059V0 M320.375,50.019
	c-1.871-5.299-2.35-9.417-3.007-15.114l-0.021-0.203c-0.573-5.09-2.157-7.799-5.658-9.394c1.209-0.55,2.438-1.308,3.657-2.529
	c2.438-2.428,3.772-5.783,3.772-9.438c0-4.541-2.151-8.505-5.913-10.874c-3.861-2.464-9.259-2.464-11.854-2.464h-18.62v51.295h8.686
	V29.004h7.653c7.856,0,9.097,1.686,9.867,8.394c0,0.01,0.125,1.05,0.125,1.05c0.479,3.848,1.136,9.123,2.173,12.196l0.219,0.654
	h9.373L320.375,50.019 M291.278,7.664h9.856c4.397,0,8.889,0.839,8.889,7.041c0,3.577-2.011,5.106-2.865,5.598
	c-1.042,0.623-3.23,0.969-6.023,0.969h-9.856V7.664z M374.356,0v51.297h-8.764V29.009h-21.538v22.288h-8.752V0h8.752v21.202h21.538
	V0H374.356z M414.676,0.005h-8.602L384.474,51.3h9.127c0,0,4.898-11.78,5.346-12.858h21.622c0.448,1.079,5.345,12.858,5.345,12.858
	h9.514L414.676,0.005 M417.771,30.984h-15.875c0.834-2.113,6.731-17.024,8.138-20.582C411.378,13.981,416.984,28.897,417.771,30.984
	 M486.569,0h12.921v51.297h-8.639V11.327c-2.912,8.002-14.557,39.971-14.557,39.971h-7.856c0,0-11.066-31.348-13.952-39.539v39.539
	h-8.565V0h13.754c0,0,11.723,34.157,13.296,38.733C474.565,34.167,486.569,0,486.569,0 M179.859,166.949
	c-5.671,0-6.733-3.339-6.488-7.127h4.579c0,2.084,0.089,3.839,2.607,3.839c1.548,0,2.306-0.998,2.306-2.475
	c0-3.949-9.214-4.188-9.214-10.707c0-3.436,1.634-6.158,7.213-6.158c4.46,0,6.669,1.996,6.369,6.578h-4.454
	c0-1.631-0.276-3.3-2.128-3.3c-1.482,0-2.368,0.826-2.368,2.326c0,4.166,9.225,3.798,9.225,10.68
	C187.505,166.271,183.347,166.949,179.859,166.949 M211.487,144.682v15.533c0,3.272-1.85,6.734-7.425,6.734
	c-5.043,0-7.461-2.61-7.461-6.734v-15.533h4.585V159.9c0,2.707,1.136,3.761,2.812,3.761c2,0,2.912-1.323,2.912-3.761v-15.218
	H211.487 M220.917,155.63c0-5.789,0-11.306,7.555-11.306c4.668,0,6.557,2.566,6.369,7.278h-4.486c0-2.907-0.523-4.001-1.883-4.001
	c-2.576,0-2.907,2.417-2.907,8.029c0,5.614,0.331,8.034,2.907,8.034c2.123,0,2.032-2.72,2.087-4.449h4.521
	c0,5.843-2.342,7.731-6.608,7.731C220.917,166.946,220.917,161.366,220.917,155.63 M243.7,155.63c0-5.789,0-11.306,7.536-11.306
	c4.666,0,6.557,2.566,6.385,7.278h-4.506c0-2.907-0.501-4.001-1.879-4.001c-2.571,0-2.912,2.417-2.912,8.029
	c0,5.614,0.341,8.034,2.912,8.034c2.123,0,2.035-2.72,2.098-4.449h4.527c0,5.843-2.34,7.731-6.625,7.731
	C243.7,166.946,243.7,161.366,243.7,155.63 M266.681,166.582v-21.9h11.946v3.376h-7.377v5.395h6.794v3.366h-6.794v6.398h7.616v3.366
	H266.681z M293.706,166.949c-5.679,0-6.737-3.339-6.497-7.127h4.579c0,2.084,0.094,3.839,2.616,3.839
	c1.531,0,2.292-0.998,2.292-2.475c0-3.949-9.211-4.188-9.211-10.707c0-3.436,1.636-6.158,7.21-6.158
	c4.465,0,6.669,1.996,6.377,6.578h-4.459c0-1.631-0.276-3.3-2.121-3.3c-1.495,0-2.365,0.826-2.365,2.326
	c0,4.166,9.227,3.798,9.227,10.68C301.353,166.271,297.18,166.949,293.706,166.949 M316.483,166.949
	c-5.679,0-6.73-3.339-6.502-7.127h4.58c0,2.084,0.089,3.839,2.61,3.839c1.553,0,2.308-0.998,2.308-2.475
	c0-3.949-9.217-4.188-9.217-10.707c0-3.436,1.626-6.158,7.216-6.158c4.455,0,6.669,1.996,6.361,6.578h-4.459
	c0-1.631-0.271-3.3-2.126-3.3c-1.479,0-2.365,0.826-2.365,2.326c0,4.166,9.232,3.798,9.232,10.68
	C324.122,166.271,319.974,166.949,316.483,166.949 M345.847,166.582v-21.9h7.377l3.438,14.895h0.052l3.627-14.895h7.132v21.9h-4.465
	V149.68h-0.052l-4.21,16.901h-4.371l-3.991-16.901h-0.057v16.901H345.847z M375.456,166.584l6.059-21.902h6.033l5.95,21.902h-4.824
	l-1.209-4.861h-6.252l-1.24,4.861H375.456z M384.287,148.907h-0.063l-2.1,9.461h4.371L384.287,148.907z M412.79,144.682v3.646
	h-5.095v18.253h-4.59v-18.253h-5.085v-3.646H412.79z M433.865,144.682v3.646h-5.085v18.253h-4.601v-18.253h-5.085v-3.646H433.865z
	 M441.893,166.582v-21.9h11.957v3.376h-7.378v5.395h6.805v3.366h-6.805v6.398h7.617v3.366H441.893z M467.448,166.582h-4.569v-21.9
	h8.467c3.121,0,5.116,1.995,5.116,5.73c0,2.785-1.084,4.893-4.054,5.367v0.052c0.99,0.141,3.971,0.37,3.971,4.317
	c0,1.404,0.083,5.517,0.51,6.434h-4.48c-0.614-1.339-0.489-2.821-0.489-4.246c0-2.607,0.244-4.822-3.277-4.822h-1.193V166.582
	 M467.448,154.146h2.053c1.818,0,2.334-1.818,2.334-3.212c0-2.095-0.886-2.881-2.334-2.881h-2.053V154.146z M491.685,166.949
	c-5.669,0-6.721-3.339-6.481-7.127h4.569c0,2.084,0.088,3.839,2.615,3.839c1.553,0,2.298-0.998,2.298-2.475
	c0-3.949-9.222-4.188-9.222-10.707c0-3.436,1.646-6.158,7.231-6.158c4.449,0,6.669,1.996,6.361,6.578h-4.455
	c0-1.631-0.26-3.3-2.136-3.3c-1.469,0-2.354,0.826-2.354,2.326c0,4.166,9.227,3.798,9.227,10.68
	C499.338,166.271,495.175,166.949,491.685,166.949"/>
<line fill="none" stroke="#000000" stroke-width="0.427" x1="173.01" y1="129.575" x2="499.396" y2="129.575"/>
<path fill="#008265" d="M0.359,67.211h64V0.039h-64V67.211z M47.504,49.516H17.219V17.729h30.285V49.516z M78.775,67.211h64V0.039
	h-64V67.211z M125.916,49.516H95.626V17.729h30.289V49.516z M0.458,82.604C0.159,85.41,0,88.254,0,91.146
	c0,39.255,27.923,71.585,63.875,75.949v-84.49H0.458 M47.992,144.155c-21.728-10.493-30.708-34.524-29.95-44.426h29.95V144.155z
	 M142.574,82.604H79.158v84.49c35.946-4.363,63.877-36.694,63.877-75.949C143.035,88.254,142.869,85.41,142.574,82.604
	 M95.036,144.155V99.729h29.944C125.743,109.631,116.763,133.662,95.036,144.155"/>
<path fill="#008265" d="M204.888,98.656l0.138-0.794h9.401l-0.111,1.063c-1.145,10.777-11.179,14.596-19.426,14.596
	c-20.118,0-21.682-19.782-21.682-25.844c0-13.001,5.932-26.886,22.572-26.886c8.456,0,17.803,3.916,18.678,14.906l0.081,1.034
	h-8.362h-0.82l-0.144-0.922c-0.3-1.884-1.211-7.625-9.711-7.625c-11.358,0-13.054,12.176-13.054,19.431
	c0,12.202,4.368,18.389,12.985,18.389c3.202,0,5.591-0.87,7.302-2.642C204.365,101.613,204.716,99.618,204.888,98.656
	 M245.224,60.175c14.777,0,23.254,9.649,23.254,26.472c0,17.344-8.674,27.287-23.804,27.287c-14.997,0-23.255-9.399-23.255-26.461
	c0-8.787,2.225-15.638,6.619-20.358C233.342,61.374,240.311,60.175,245.224,60.175 M255.079,102.048
	c3.673-4.501,4.22-11.623,4.22-15.471c0-12.611-4.579-18.743-14.012-18.743c-9.795,0-14.768,6.474-14.768,19.23
	c0,6.523,1.403,11.566,4.162,14.989c2.22,2.759,5.655,4.152,10.201,4.152C249.322,106.206,252.754,104.802,255.079,102.048
	 M286.151,104.778V61.475h-8.69v51.306h31.666v-8.002H286.151z M328.456,104.778V61.475h-8.69v51.306h31.678v-8.002H328.456z
	 M372.413,104.841V90.339h22.981v-7.662h-22.981V69.202h24.148v-7.729H363.65v51.311h33.453v-7.942H372.413z M431.041,84.595v7.596
	h11.274v12.965c-1.729,0.511-4.971,1.323-9.774,1.323c-5.632,0-9.805-1.521-12.41-4.525c-3.146-3.746-4.271-10.154-4.271-14.895
	c0-4.403,0.864-10.618,5.022-15.231c2.251-2.556,5.762-3.853,10.431-3.853c5.84,0,9.471,2.459,10.206,6.924l0.13,0.808h9.284
	l-0.067-1.026c-0.131-1.915-0.35-5.122-3.538-8.466c-4.918-4.986-11.065-5.564-15.255-5.564c-5.819,0-10.758,1.266-14.296,3.655
	c-10.222,6.856-11.014,19.832-11.014,23.64c0,7.88,2.553,14.799,7.185,19.483c4.23,4.332,10.311,6.439,18.594,6.439
	c8.779,0,15.391-2.225,17.881-3.056l0.656-0.224V84.595H431.041 M475.304,104.841V90.339h22.977v-7.662h-22.977V69.202h24.144
	v-7.729h-32.906v51.311H500v-7.942H475.304z"/>
</svg>
